<svg width="39" height="53" viewBox="0 0 39 53" fill="none" xmlns="http://www.w3.org/2000/svg">
<path d="M11.4738 2.19047C11.3827 1.45498 10.7126 0.932591 9.97717 1.02368C9.24171 1.11476 8.71935 1.78483 8.81044 2.52032L8.8869 3.13771C8.97799 3.8732 9.64804 4.39559 10.3835 4.3045C11.119 4.21342 11.6413 3.54335 11.5502 2.80786L11.4738 2.19047Z" fill="#0699D7"/>
<path d="M11.4738 2.19047C11.3827 1.45498 10.7126 0.932591 9.97717 1.02368C9.24171 1.11476 8.71935 1.78483 8.81044 2.52032L8.8869 3.13771C8.97799 3.8732 9.64804 4.39559 10.3835 4.3045C11.119 4.21342 11.6413 3.54335 11.5502 2.80786L11.4738 2.19047Z" fill="url(#paint0_linear_4_2458)"/>
<path d="M9.60798 13.4676C9.59287 13.3894 9.57105 13.3136 9.54297 13.2406L9.60798 13.4676Z" fill="#0699D7"/>
<path d="M9.54297 13.2389C9.58649 13.2233 9.62922 13.2055 9.67117 13.1852L9.54297 13.2389Z" fill="#0699D7"/>
<path d="M7.44852 11.6426C7.38062 11.6166 7.32551 11.5635 7.30567 11.4936C7.23011 11.2272 7.2404 10.924 7.35581 10.6337L9.22392 5.93536C9.52302 5.18313 10.2951 4.77973 10.9756 5.02C11.6561 5.26026 12.0037 6.0592 11.7641 6.83243L10.2677 11.662C10.1529 12.0326 9.89936 12.317 9.59566 12.464" fill="#0699D7"/>
<path d="M7.44852 11.6426C7.38062 11.6166 7.32551 11.5635 7.30567 11.4936C7.23011 11.2272 7.2404 10.924 7.35581 10.6337L9.22392 5.93536C9.52302 5.18313 10.2951 4.77973 10.9756 5.02C11.6561 5.26026 12.0037 6.0592 11.7641 6.83243L10.2677 11.662C10.1529 12.0326 9.89936 12.317 9.59566 12.464" fill="url(#paint1_linear_4_2458)"/>
<path d="M7.12339 11.9742L2.86407 11.1622C1.83666 11.0284 0.925781 11.8284 0.925781 12.8645C0.925781 13.8126 1.69429 14.5812 2.64244 14.5812H8.28172C9.02777 14.5812 9.6327 13.9764 9.6327 13.2302C9.6327 13.1425 9.62417 13.0565 9.60812 12.9731" fill="#0699D7"/>
<path d="M7.12339 11.9742L2.86407 11.1622C1.83666 11.0284 0.925781 11.8284 0.925781 12.8645C0.925781 13.8126 1.69429 14.5812 2.64244 14.5812H8.28172C9.02777 14.5812 9.6327 13.9764 9.6327 13.2302C9.6327 13.1425 9.62417 13.0565 9.60812 12.9731" fill="url(#paint2_linear_4_2458)"/>
<path d="M2.21631 15.0051H8.38868C8.38868 15.573 7.96918 16.0339 7.45235 16.0339H3.15264C2.63581 16.0339 2.21631 15.573 2.21631 15.0051Z" fill="#0699D7"/>
<path d="M2.21631 15.0051H8.38868C8.38868 15.573 7.96918 16.0339 7.45235 16.0339H3.15264C2.63581 16.0339 2.21631 15.573 2.21631 15.0051Z" fill="url(#paint3_linear_4_2458)"/>
<path d="M21.4925 13.4637C21.4774 13.3854 21.4556 13.3096 21.4275 13.2366L21.4925 13.4637Z" fill="#0699D7"/>
<path d="M21.4275 13.2376C21.471 13.222 21.5137 13.2041 21.5557 13.1838L21.4275 13.2376Z" fill="#0699D7"/>
<path d="M19.0079 11.9731L14.7486 11.1611C13.7212 11.0273 12.8103 11.8273 12.8103 12.8634C12.8103 13.8115 13.5788 14.5801 14.527 14.5801H20.1662C20.9123 14.5801 21.5172 13.9753 21.5172 13.2291C21.5172 13.1414 21.5087 13.0554 21.4926 12.972" fill="#0699D7"/>
<path d="M19.0079 11.9731L14.7486 11.1611C13.7212 11.0273 12.8103 11.8273 12.8103 12.8634C12.8103 13.8115 13.5788 14.5801 14.527 14.5801H20.1662C20.9123 14.5801 21.5172 13.9753 21.5172 13.2291C21.5172 13.1414 21.5087 13.0554 21.4926 12.972" fill="url(#paint4_linear_4_2458)"/>
<path d="M28.6511 6.0444C29.0136 5.39801 28.7835 4.58014 28.1371 4.21764C27.4908 3.85514 26.6729 4.08528 26.3104 4.73168L26.0061 5.27428C25.6436 5.92067 25.8737 6.73854 26.5201 7.10104C27.1664 7.46354 27.9843 7.23339 28.3468 6.587L28.6511 6.0444Z" fill="#0699D7"/>
<path d="M28.6511 6.0444C29.0136 5.39801 28.7835 4.58014 28.1371 4.21764C27.4908 3.85514 26.6729 4.08528 26.3104 4.73168L26.0061 5.27428C25.6436 5.92067 25.8737 6.73854 26.5201 7.10104C27.1664 7.46354 27.9843 7.23339 28.3468 6.587L28.6511 6.0444Z" fill="url(#paint5_linear_4_2458)"/>
<path d="M19.8082 11.2709C19.7689 11.2098 19.756 11.1343 19.7814 11.0662C19.8784 10.8069 20.0665 10.5687 20.3314 10.4033L24.6206 7.72614C25.3073 7.2975 26.1683 7.43016 26.574 8.02697C26.9797 8.62378 26.7862 9.4733 26.135 9.95412L22.0675 12.9573C21.7553 13.1878 21.3826 13.2666 21.0509 13.205" fill="#0699D7"/>
<path d="M19.8082 11.2709C19.7689 11.2098 19.756 11.1343 19.7814 11.0662C19.8784 10.8069 20.0665 10.5687 20.3314 10.4033L24.6206 7.72614C25.3073 7.2975 26.1683 7.43016 26.574 8.02697C26.9797 8.62378 26.7862 9.4733 26.135 9.95412L22.0675 12.9573C21.7553 13.1878 21.3826 13.2666 21.0509 13.205" fill="url(#paint6_linear_4_2458)"/>
<path d="M14.0989 15.0051H20.2712C20.2712 15.5729 19.8517 16.0338 19.3349 16.0338H15.0352C14.5184 16.0338 14.0989 15.5729 14.0989 15.0051Z" fill="#0699D7"/>
<path d="M14.0989 15.0051H20.2712C20.2712 15.5729 19.8517 16.0338 19.3349 16.0338H15.0352C14.5184 16.0338 14.0989 15.5729 14.0989 15.0051Z" fill="url(#paint7_linear_4_2458)"/>
<rect x="30.2769" y="8.96545" width="8.10783" height="5.40522" rx="1.3513" fill="#0699D7"/>
<rect x="30.2769" y="8.96545" width="8.10783" height="5.40522" rx="1.3513" fill="#0699D7"/>
<rect x="30.2769" y="8.96545" width="8.10783" height="5.40522" rx="1.3513" fill="url(#paint8_linear_4_2458)"/>
<path d="M31.322 15.005H37.4944C37.4944 15.5728 37.0749 16.0337 36.5581 16.0337H32.2583C31.7415 16.0337 31.322 15.5728 31.322 15.005Z" fill="#0699D7"/>
<path d="M31.322 15.005H37.4944C37.4944 15.5728 37.0749 16.0337 36.5581 16.0337H32.2583C31.7415 16.0337 31.322 15.5728 31.322 15.005Z" fill="url(#paint9_linear_4_2458)"/>
<path d="M26.4521 37.1435V33.8228C26.4521 32.8974 25.7019 32.1473 24.7766 32.1473C23.8512 32.1473 23.1011 32.8974 23.1011 33.8228C23.1011 35.1218 23.1011 35.8561 23.1011 37.1435" stroke="#0699D7" stroke-width="1.08104" stroke-linecap="round" stroke-linejoin="round"/>
<path d="M26.4521 37.1435V33.8228C26.4521 32.8974 25.7019 32.1473 24.7766 32.1473C23.8512 32.1473 23.1011 32.8974 23.1011 33.8228C23.1011 35.1218 23.1011 35.8561 23.1011 37.1435" stroke="url(#paint10_linear_4_2458)" stroke-width="1.08104" stroke-linecap="round" stroke-linejoin="round"/>
<path d="M23.0973 37.2323V32.234C23.0973 31.3087 22.3472 30.5585 21.4218 30.5585C20.4965 30.5585 19.7463 31.3087 19.7463 32.234C19.7463 34.1829 19.7463 35.2836 19.7463 37.2165" stroke="#0699D7" stroke-width="1.08104" stroke-linecap="round" stroke-linejoin="round"/>
<path d="M23.0973 37.2323V32.234C23.0973 31.3087 22.3472 30.5585 21.4218 30.5585C20.4965 30.5585 19.7463 31.3087 19.7463 32.234C19.7463 34.1829 19.7463 35.2836 19.7463 37.2165" stroke="url(#paint11_linear_4_2458)" stroke-width="1.08104" stroke-linecap="round" stroke-linejoin="round"/>
<path d="M26.4502 37.1847V37.1561V35.8344C26.4502 34.9103 27.2003 34.1606 28.1244 34.1606C29.0485 34.1606 29.7982 34.8783 29.7982 35.834C29.8066 36.6334 29.9225 43.8319 29.8387 44.6465C29.4137 48.7725 25.9267 51.904 21.7788 51.904C18.6464 51.904 15.9853 50.0651 14.4543 47.2684C12.5509 43.6512 12.3058 42.1682 9.95937 37.9045C9.55755 37.1738 9.84059 36.3099 10.6409 36.2303C11.3657 36.1583 12.2877 36.3651 13.136 37.4383C14.8877 39.6537 14.9703 40.7471 16.3968 41.3781V27.47C16.3968 26.5446 17.1465 25.7945 18.0723 25.7945C18.9981 25.7945 19.7478 26.5451 19.7478 27.47C19.7478 31.2494 19.7478 33.3748 19.7478 37.1416" stroke="#0699D7" stroke-width="1.08104" stroke-linecap="round" stroke-linejoin="round"/>
<path d="M26.4502 37.1847V37.1561V35.8344C26.4502 34.9103 27.2003 34.1606 28.1244 34.1606C29.0485 34.1606 29.7982 34.8783 29.7982 35.834C29.8066 36.6334 29.9225 43.8319 29.8387 44.6465C29.4137 48.7725 25.9267 51.904 21.7788 51.904C18.6464 51.904 15.9853 50.0651 14.4543 47.2684C12.5509 43.6512 12.3058 42.1682 9.95937 37.9045C9.55755 37.1738 9.84059 36.3099 10.6409 36.2303C11.3657 36.1583 12.2877 36.3651 13.136 37.4383C14.8877 39.6537 14.9703 40.7471 16.3968 41.3781V27.47C16.3968 26.5446 17.1465 25.7945 18.0723 25.7945C18.9981 25.7945 19.7478 26.5451 19.7478 27.47C19.7478 31.2494 19.7478 33.3748 19.7478 37.1416" stroke="url(#paint12_linear_4_2458)" stroke-width="1.08104" stroke-linecap="round" stroke-linejoin="round"/>
<path d="M21.4759 27.8899C21.8516 27.2813 22.068 26.5645 22.068 25.7966C22.068 23.5904 20.2801 21.8025 18.0739 21.8025C15.8677 21.8025 14.0793 23.5904 14.0793 25.7966C14.0793 26.5571 14.2917 27.2675 14.6607 27.8723" stroke="#0699D7" stroke-width="1.08104" stroke-linecap="round" stroke-linejoin="round"/>
<path d="M21.4759 27.8899C21.8516 27.2813 22.068 26.5645 22.068 25.7966C22.068 23.5904 20.2801 21.8025 18.0739 21.8025C15.8677 21.8025 14.0793 23.5904 14.0793 25.7966C14.0793 26.5571 14.2917 27.2675 14.6607 27.8723" stroke="url(#paint13_linear_4_2458)" stroke-width="1.08104" stroke-linecap="round" stroke-linejoin="round"/>
<defs>
<linearGradient id="paint0_linear_4_2458" x1="9.9689" y1="1.18546" x2="9.9689" y2="4.33961" gradientUnits="userSpaceOnUse">
<stop stop-color="#19729F"/>
<stop offset="1" stop-color="#12597C"/>
</linearGradient>
<linearGradient id="paint1_linear_4_2458" x1="9.50057" y1="5.31328" x2="8.3414" y2="12.3454" gradientUnits="userSpaceOnUse">
<stop stop-color="#19729F"/>
<stop offset="1" stop-color="#12597C"/>
</linearGradient>
<linearGradient id="paint2_linear_4_2458" x1="5.18811" y1="11.3133" x2="5.05744" y2="14.6091" gradientUnits="userSpaceOnUse">
<stop stop-color="#19729F"/>
<stop offset="1" stop-color="#12597C"/>
</linearGradient>
<linearGradient id="paint3_linear_4_2458" x1="5.23789" y1="15.0548" x2="5.22132" y2="16.0435" gradientUnits="userSpaceOnUse">
<stop stop-color="#19729F"/>
<stop offset="1" stop-color="#12597C"/>
</linearGradient>
<linearGradient id="paint4_linear_4_2458" x1="17.0726" y1="11.3122" x2="16.942" y2="14.608" gradientUnits="userSpaceOnUse">
<stop stop-color="#19729F"/>
<stop offset="1" stop-color="#12597C"/>
</linearGradient>
<linearGradient id="paint5_linear_4_2458" x1="28.0346" y1="4.34306" x2="26.1653" y2="6.88361" gradientUnits="userSpaceOnUse">
<stop stop-color="#19729F"/>
<stop offset="1" stop-color="#12597C"/>
</linearGradient>
<linearGradient id="paint6_linear_4_2458" x1="25.2121" y1="7.38903" x2="20.1109" y2="12.3662" gradientUnits="userSpaceOnUse">
<stop stop-color="#19729F"/>
<stop offset="1" stop-color="#12597C"/>
</linearGradient>
<linearGradient id="paint7_linear_4_2458" x1="17.1205" y1="15.0547" x2="17.1039" y2="16.0434" gradientUnits="userSpaceOnUse">
<stop stop-color="#19729F"/>
<stop offset="1" stop-color="#12597C"/>
</linearGradient>
<linearGradient id="paint8_linear_4_2458" x1="34.2459" y1="9.22632" x2="33.8992" y2="14.3996" gradientUnits="userSpaceOnUse">
<stop stop-color="#19729F"/>
<stop offset="1" stop-color="#12597C"/>
</linearGradient>
<linearGradient id="paint9_linear_4_2458" x1="34.3436" y1="15.0547" x2="34.327" y2="16.0434" gradientUnits="userSpaceOnUse">
<stop stop-color="#19729F"/>
<stop offset="1" stop-color="#12597C"/>
</linearGradient>
<linearGradient id="paint10_linear_4_2458" x1="24.7415" y1="32.3884" x2="24.0373" y2="37.0862" gradientUnits="userSpaceOnUse">
<stop stop-color="#19729F"/>
<stop offset="1" stop-color="#12597C"/>
</linearGradient>
<linearGradient id="paint11_linear_4_2458" x1="21.3868" y1="30.8806" x2="20.1516" y2="37.0494" gradientUnits="userSpaceOnUse">
<stop stop-color="#19729F"/>
<stop offset="1" stop-color="#12597C"/>
</linearGradient>
<linearGradient id="paint12_linear_4_2458" x1="19.6132" y1="27.0546" x2="16.3886" y2="51.7346" gradientUnits="userSpaceOnUse">
<stop stop-color="#19729F"/>
<stop offset="1" stop-color="#12597C"/>
</linearGradient>
<linearGradient id="paint13_linear_4_2458" x1="17.9901" y1="22.0963" x2="17.5443" y2="27.9145" gradientUnits="userSpaceOnUse">
<stop stop-color="#19729F"/>
<stop offset="1" stop-color="#12597C"/>
</linearGradient>
</defs>
</svg>
