<svg width="39" height="39" viewBox="0 0 39 39" fill="none" xmlns="http://www.w3.org/2000/svg">
<circle cx="19.5" cy="19.5" r="18.5" stroke="white" stroke-width="2"/>
<path d="M20.7879 26V30H24.7879V26H20.7879ZM18.2121 26H14.2121V30H18.2121V26ZM18.2121 20.7879H22.2121V16.7879H18.2121V20.7879ZM13 20.7879H9V24.7879H13V20.7879ZM13 18.2121V14.2121H9V18.2121H13ZM18.2121 18.2121V22.2121H22.2121V18.2121H18.2121ZM18.2121 13V9H14.2121V13H18.2121ZM20.7879 13H24.7879V9H20.7879V13ZM20.7879 18.2121H16.7879V22.2121H20.7879V18.2121ZM26 18.2121H30V14.2121H26V18.2121ZM26 20.7879V24.7879H30V20.7879H26ZM20.7879 20.7879V16.7879H16.7879V20.7879H20.7879ZM20.7879 22H18.2121V30H20.7879V22ZM22.2121 26V20.7879H14.2121V26H22.2121ZM18.2121 16.7879H13V24.7879H18.2121V16.7879ZM17 20.7879V18.2121H9V20.7879H17ZM13 22.2121H18.2121V14.2121H13V22.2121ZM22.2121 18.2121V13H14.2121V18.2121H22.2121ZM18.2121 17H20.7879V9H18.2121V17ZM16.7879 13V18.2121H24.7879V13H16.7879ZM20.7879 22.2121H26V14.2121H20.7879V22.2121ZM22 18.2121V20.7879H30V18.2121H22ZM26 16.7879H20.7879V24.7879H26V16.7879ZM16.7879 20.7879V26H24.7879V20.7879H16.7879Z"/>
</svg>
