<svg width="56" height="56" viewBox="0 0 56 56" fill="none" xmlns="http://www.w3.org/2000/svg">
<path d="M20.7067 28.6259L18.2336 27.9637L18.8963 25.4911" stroke="#0699D7" stroke-width="1.08104" stroke-linecap="round" stroke-linejoin="round"/>
<path d="M20.7067 28.6259L18.2336 27.9637L18.8963 25.4911" stroke="url(#paint0_linear_4_2488)" stroke-width="1.08104" stroke-linecap="round" stroke-linejoin="round"/>
<path d="M37.4859 27.9649C31.6381 24.3016 24.2172 24.274 18.3418 27.8942" stroke="#0699D7" stroke-width="1.08104" stroke-linecap="round" stroke-linejoin="round"/>
<path d="M37.4859 27.9649C31.6381 24.3016 24.2172 24.274 18.3418 27.8942" stroke="url(#paint1_linear_4_2488)" stroke-width="1.08104" stroke-linecap="round" stroke-linejoin="round"/>
<path d="M34.391 39.9788V36.658C34.391 35.7327 33.6409 34.9825 32.7155 34.9825C31.7902 34.9825 31.04 35.7327 31.04 36.658C31.04 37.9571 31.04 38.6913 31.04 39.9788" stroke="#0699D7" stroke-width="1.08104" stroke-linecap="round" stroke-linejoin="round"/>
<path d="M34.391 39.9788V36.658C34.391 35.7327 33.6409 34.9825 32.7155 34.9825C31.7902 34.9825 31.04 35.7327 31.04 36.658C31.04 37.9571 31.04 38.6913 31.04 39.9788" stroke="url(#paint2_linear_4_2488)" stroke-width="1.08104" stroke-linecap="round" stroke-linejoin="round"/>
<path d="M31.0363 40.0676V35.0693C31.0363 34.1439 30.2861 33.3938 29.3608 33.3938C28.4354 33.3938 27.6853 34.1439 27.6853 35.0693C27.6853 37.0182 27.6853 38.1189 27.6853 40.0518" stroke="#0699D7" stroke-width="1.08104" stroke-linecap="round" stroke-linejoin="round"/>
<path d="M31.0363 40.0676V35.0693C31.0363 34.1439 30.2861 33.3938 29.3608 33.3938C28.4354 33.3938 27.6853 34.1439 27.6853 35.0693C27.6853 37.0182 27.6853 38.1189 27.6853 40.0518" stroke="url(#paint3_linear_4_2488)" stroke-width="1.08104" stroke-linecap="round" stroke-linejoin="round"/>
<path d="M34.3892 40.02V39.9914V38.6697C34.3892 37.7456 35.1393 36.9958 36.0634 36.9958C36.9875 36.9958 37.7372 37.7136 37.7372 38.6692C37.7456 39.4686 37.8614 46.6672 37.7776 47.4818C37.3526 51.6077 33.8656 54.7393 29.7177 54.7393C26.5854 54.7393 23.9243 52.9004 22.3933 50.1037C20.4899 46.4865 20.2448 45.0035 17.8983 40.7398C17.4965 40.009 17.7796 39.1452 18.5798 39.0656C19.3047 38.9935 20.2267 39.2003 21.0749 40.2735C22.8267 42.489 22.9092 43.5824 24.3358 44.2133V30.3053C24.3358 29.3799 25.0855 28.6298 26.0113 28.6298C26.9371 28.6298 27.6868 29.3803 27.6868 30.3053C27.6868 34.0847 27.6868 36.2101 27.6868 39.9768" stroke="#0699D7" stroke-width="1.08104" stroke-linecap="round" stroke-linejoin="round"/>
<path d="M34.3892 40.02V39.9914V38.6697C34.3892 37.7456 35.1393 36.9958 36.0634 36.9958C36.9875 36.9958 37.7372 37.7136 37.7372 38.6692C37.7456 39.4686 37.8614 46.6672 37.7776 47.4818C37.3526 51.6077 33.8656 54.7393 29.7177 54.7393C26.5854 54.7393 23.9243 52.9004 22.3933 50.1037C20.4899 46.4865 20.2448 45.0035 17.8983 40.7398C17.4965 40.009 17.7796 39.1452 18.5798 39.0656C19.3047 38.9935 20.2267 39.2003 21.0749 40.2735C22.8267 42.489 22.9092 43.5824 24.3358 44.2133V30.3053C24.3358 29.3799 25.0855 28.6298 26.0113 28.6298C26.9371 28.6298 27.6868 29.3803 27.6868 30.3053C27.6868 34.0847 27.6868 36.2101 27.6868 39.9768" stroke="url(#paint4_linear_4_2488)" stroke-width="1.08104" stroke-linecap="round" stroke-linejoin="round"/>
<path d="M11.2301 4.48197C11.139 3.74649 10.469 3.22409 9.73352 3.31518C8.99806 3.40626 8.4757 4.07633 8.56679 4.81182L8.64325 5.42921C8.73434 6.1647 9.40438 6.68709 10.1398 6.59601C10.8753 6.50492 11.3977 5.83485 11.3066 5.09936L11.2301 4.48197Z" fill="#0699D7"/>
<path d="M11.2301 4.48197C11.139 3.74649 10.469 3.22409 9.73352 3.31518C8.99806 3.40626 8.4757 4.07633 8.56679 4.81182L8.64325 5.42921C8.73434 6.1647 9.40438 6.68709 10.1398 6.59601C10.8753 6.50492 11.3977 5.83485 11.3066 5.09936L11.2301 4.48197Z" fill="url(#paint5_linear_4_2488)"/>
<path d="M9.36848 15.7577C9.35337 15.6795 9.33155 15.6036 9.30347 15.5306L9.36848 15.7577Z" fill="#0699D7"/>
<path d="M9.30347 15.5289C9.34699 15.5134 9.38972 15.4955 9.43167 15.4752L9.30347 15.5289Z" fill="#0699D7"/>
<path d="M7.20926 13.9326C7.14136 13.9067 7.08625 13.8536 7.06641 13.7836C6.99085 13.5173 7.00114 13.214 7.11655 12.9237L8.98467 8.2254C9.28376 7.47317 10.0559 7.06977 10.7364 7.31004C11.4168 7.5503 11.7644 8.34924 11.5249 9.12247L10.0285 13.952C9.91362 14.3226 9.6601 14.607 9.3564 14.754" fill="#0699D7"/>
<path d="M7.20926 13.9326C7.14136 13.9067 7.08625 13.8536 7.06641 13.7836C6.99085 13.5173 7.00114 13.214 7.11655 12.9237L8.98467 8.2254C9.28376 7.47317 10.0559 7.06977 10.7364 7.31004C11.4168 7.5503 11.7644 8.34924 11.5249 9.12247L10.0285 13.952C9.91362 14.3226 9.6601 14.607 9.3564 14.754" fill="url(#paint6_linear_4_2488)"/>
<path d="M6.88413 14.2642L2.62481 13.4523C1.5974 13.3184 0.686523 14.1184 0.686523 15.1546C0.686523 16.1026 1.45504 16.8712 2.40319 16.8712H8.04246C8.78852 16.8712 9.39345 16.2664 9.39345 15.5202C9.39345 15.4326 9.38491 15.3466 9.36886 15.2631" fill="#0699D7"/>
<path d="M6.88413 14.2642L2.62481 13.4523C1.5974 13.3184 0.686523 14.1184 0.686523 15.1546C0.686523 16.1026 1.45504 16.8712 2.40319 16.8712H8.04246C8.78852 16.8712 9.39345 16.2664 9.39345 15.5202C9.39345 15.4326 9.38491 15.3466 9.36886 15.2631" fill="url(#paint7_linear_4_2488)"/>
<path d="M1.96948 17.2969H8.14185C8.14185 17.8647 7.72235 18.3256 7.20553 18.3256H2.90581C2.38898 18.3256 1.96948 17.8647 1.96948 17.2969Z" fill="#0699D7"/>
<path d="M1.96948 17.2969H8.14185C8.14185 17.8647 7.72235 18.3256 7.20553 18.3256H2.90581C2.38898 18.3256 1.96948 17.8647 1.96948 17.2969Z" fill="url(#paint8_linear_4_2488)"/>
<path fill-rule="evenodd" clip-rule="evenodd" d="M22.2069 2.95393C23.0008 2.95393 23.6445 2.30695 23.6445 1.50901C23.6445 0.711067 23.0008 0.0640869 22.2069 0.0640869C21.413 0.0640869 20.7693 0.711067 20.7693 1.50901C20.7693 2.30695 21.413 2.95393 22.2069 2.95393ZM26.1621 9.66196L25.1978 4.70916C25.0922 4.13683 24.6342 3.70634 24.0854 3.70634H20.3305C19.7818 3.70634 19.3237 4.13683 19.2181 4.70916L18.5142 8.38368C18.3863 9.05056 18.8946 9.66851 19.5697 9.66851H19.6794L19.228 12.0234H20.6755L21.0807 17.6994H23.3361L23.7413 12.0234H25.1888L24.8941 10.4831H27.4953L27.4891 13.4264L28.1748 17.7139H30.195L30.8808 13.4256V10.4831H34.152L34.7322 17.6994H37.6453L38.2263 10.4532C38.9343 10.4532 39.4617 9.87588 39.4617 9.1642V4.99947C39.4617 4.28531 38.9385 3.70634 38.2931 3.70634H34.0893C33.444 3.70634 32.9208 4.28531 32.9208 4.99947V9.1642C32.9208 9.34063 32.9528 9.5088 33.0117 9.66196H26.1621ZM30.4281 7.71665C30.4281 8.39847 29.8777 8.95172 29.1993 8.95172C28.521 8.95172 27.9706 8.39847 27.9706 7.71665C27.9706 7.03483 28.521 6.48158 29.1993 6.48158C29.8777 6.48158 30.4281 7.03483 30.4281 7.71665ZM34.703 1.50901C34.703 2.30695 35.3467 2.95393 36.1406 2.95393C36.9345 2.95393 37.5782 2.30695 37.5782 1.50901C37.5782 0.711067 36.9345 0.0640869 36.1406 0.0640869C35.3467 0.0640869 34.703 0.711067 34.703 1.50901Z" fill="#0699D7"/>
<path fill-rule="evenodd" clip-rule="evenodd" d="M22.2069 2.95393C23.0008 2.95393 23.6445 2.30695 23.6445 1.50901C23.6445 0.711067 23.0008 0.0640869 22.2069 0.0640869C21.413 0.0640869 20.7693 0.711067 20.7693 1.50901C20.7693 2.30695 21.413 2.95393 22.2069 2.95393ZM26.1621 9.66196L25.1978 4.70916C25.0922 4.13683 24.6342 3.70634 24.0854 3.70634H20.3305C19.7818 3.70634 19.3237 4.13683 19.2181 4.70916L18.5142 8.38368C18.3863 9.05056 18.8946 9.66851 19.5697 9.66851H19.6794L19.228 12.0234H20.6755L21.0807 17.6994H23.3361L23.7413 12.0234H25.1888L24.8941 10.4831H27.4953L27.4891 13.4264L28.1748 17.7139H30.195L30.8808 13.4256V10.4831H34.152L34.7322 17.6994H37.6453L38.2263 10.4532C38.9343 10.4532 39.4617 9.87588 39.4617 9.1642V4.99947C39.4617 4.28531 38.9385 3.70634 38.2931 3.70634H34.0893C33.444 3.70634 32.9208 4.28531 32.9208 4.99947V9.1642C32.9208 9.34063 32.9528 9.5088 33.0117 9.66196H26.1621ZM30.4281 7.71665C30.4281 8.39847 29.8777 8.95172 29.1993 8.95172C28.521 8.95172 27.9706 8.39847 27.9706 7.71665C27.9706 7.03483 28.521 6.48158 29.1993 6.48158C29.8777 6.48158 30.4281 7.03483 30.4281 7.71665ZM34.703 1.50901C34.703 2.30695 35.3467 2.95393 36.1406 2.95393C36.9345 2.95393 37.5782 2.30695 37.5782 1.50901C37.5782 0.711067 36.9345 0.0640869 36.1406 0.0640869C35.3467 0.0640869 34.703 0.711067 34.703 1.50901Z" fill="url(#paint9_linear_4_2488)"/>
<path d="M48.8734 17.2402C48.8734 17.7326 48.4764 18.1316 47.9866 18.1316C47.4967 18.1316 47.0991 17.7326 47.0991 17.2402" fill="#0699D7"/>
<path d="M48.8734 17.2402C48.8734 17.7326 48.4764 18.1316 47.9866 18.1316C47.4967 18.1316 47.0991 17.7326 47.0991 17.2402" fill="url(#paint10_linear_4_2488)"/>
<path d="M54.2042 17.2402C54.2042 17.7326 53.8073 18.1316 53.3174 18.1316C52.8275 18.1316 52.4299 17.7326 52.4299 17.2402" fill="#0699D7"/>
<path d="M54.2042 17.2402C54.2042 17.7326 53.8073 18.1316 53.3174 18.1316C52.8275 18.1316 52.4299 17.7326 52.4299 17.2402" fill="url(#paint11_linear_4_2488)"/>
<path d="M54.7604 8.75256H46.5803C45.9371 8.75256 45.4153 9.27708 45.4153 9.92348V15.4367C45.4153 16.0837 45.9371 16.6076 46.5803 16.6076H54.7598C55.4035 16.6076 55.9247 16.0831 55.9247 15.4367V9.92348C55.9247 9.27648 55.4029 8.75256 54.7598 8.75256H54.7604ZM49.0725 15.3142C49.0725 15.4246 48.9832 15.5143 48.8734 15.5143C48.7636 15.5143 48.6743 15.4246 48.6743 15.3142V10.046C48.6743 9.93561 48.7636 9.84587 48.8734 9.84587C48.9832 9.84587 49.0725 9.93561 49.0725 10.046V15.3142ZM52.6663 15.3142C52.6663 15.4246 52.577 15.5143 52.4672 15.5143C52.3574 15.5143 52.2681 15.4246 52.2681 15.3142V10.046C52.2681 9.93561 52.3574 9.84587 52.4672 9.84587C52.577 9.84587 52.6663 9.93561 52.6663 10.046V15.3142Z" fill="#0699D7"/>
<path d="M54.7604 8.75256H46.5803C45.9371 8.75256 45.4153 9.27708 45.4153 9.92348V15.4367C45.4153 16.0837 45.9371 16.6076 46.5803 16.6076H54.7598C55.4035 16.6076 55.9247 16.0831 55.9247 15.4367V9.92348C55.9247 9.27648 55.4029 8.75256 54.7598 8.75256H54.7604ZM49.0725 15.3142C49.0725 15.4246 48.9832 15.5143 48.8734 15.5143C48.7636 15.5143 48.6743 15.4246 48.6743 15.3142V10.046C48.6743 9.93561 48.7636 9.84587 48.8734 9.84587C48.9832 9.84587 49.0725 9.93561 49.0725 10.046V15.3142ZM52.6663 15.3142C52.6663 15.4246 52.577 15.5143 52.4672 15.5143C52.3574 15.5143 52.2681 15.4246 52.2681 15.3142V10.046C52.2681 9.93561 52.3574 9.84587 52.4672 9.84587C52.577 9.84587 52.6663 9.93561 52.6663 10.046V15.3142Z" fill="url(#paint12_linear_4_2488)"/>
<path d="M52.729 8.11122H52.1317V7.46482C52.1317 7.27018 51.9743 7.11191 51.7806 7.11191H49.5629C49.3692 7.11191 49.2118 7.27018 49.2118 7.46482V8.11122H48.6145V7.46482C48.6145 6.93909 49.0398 6.5116 49.5629 6.5116H51.7806C52.3037 6.5116 52.729 6.93909 52.729 7.46482V8.11122Z" fill="#0699D7"/>
<path d="M52.729 8.11122H52.1317V7.46482C52.1317 7.27018 51.9743 7.11191 51.7806 7.11191H49.5629C49.3692 7.11191 49.2118 7.27018 49.2118 7.46482V8.11122H48.6145V7.46482C48.6145 6.93909 49.0398 6.5116 49.5629 6.5116H51.7806C52.3037 6.5116 52.729 6.93909 52.729 7.46482V8.11122Z" fill="url(#paint13_linear_4_2488)"/>
<defs>
<linearGradient id="paint0_linear_4_2488" x1="19.4443" y1="25.6424" x2="19.0663" y2="28.608" gradientUnits="userSpaceOnUse">
<stop stop-color="#19729F"/>
<stop offset="1" stop-color="#12597C"/>
</linearGradient>
<linearGradient id="paint1_linear_4_2488" x1="27.7135" y1="25.3316" x2="27.6749" y2="27.991" gradientUnits="userSpaceOnUse">
<stop stop-color="#19729F"/>
<stop offset="1" stop-color="#12597C"/>
</linearGradient>
<linearGradient id="paint2_linear_4_2488" x1="32.6805" y1="35.2237" x2="31.9763" y2="39.9214" gradientUnits="userSpaceOnUse">
<stop stop-color="#19729F"/>
<stop offset="1" stop-color="#12597C"/>
</linearGradient>
<linearGradient id="paint3_linear_4_2488" x1="29.3257" y1="33.7159" x2="28.0905" y2="39.8847" gradientUnits="userSpaceOnUse">
<stop stop-color="#19729F"/>
<stop offset="1" stop-color="#12597C"/>
</linearGradient>
<linearGradient id="paint4_linear_4_2488" x1="27.5522" y1="29.8898" x2="24.3276" y2="54.5699" gradientUnits="userSpaceOnUse">
<stop stop-color="#19729F"/>
<stop offset="1" stop-color="#12597C"/>
</linearGradient>
<linearGradient id="paint5_linear_4_2488" x1="9.72525" y1="3.47697" x2="9.72525" y2="6.63112" gradientUnits="userSpaceOnUse">
<stop stop-color="#19729F"/>
<stop offset="1" stop-color="#12597C"/>
</linearGradient>
<linearGradient id="paint6_linear_4_2488" x1="9.26132" y1="7.60332" x2="8.10215" y2="14.6354" gradientUnits="userSpaceOnUse">
<stop stop-color="#19729F"/>
<stop offset="1" stop-color="#12597C"/>
</linearGradient>
<linearGradient id="paint7_linear_4_2488" x1="4.94885" y1="13.6033" x2="4.81818" y2="16.8992" gradientUnits="userSpaceOnUse">
<stop stop-color="#19729F"/>
<stop offset="1" stop-color="#12597C"/>
</linearGradient>
<linearGradient id="paint8_linear_4_2488" x1="4.99106" y1="17.3465" x2="4.9745" y2="18.3353" gradientUnits="userSpaceOnUse">
<stop stop-color="#19729F"/>
<stop offset="1" stop-color="#12597C"/>
</linearGradient>
<linearGradient id="paint9_linear_4_2488" x1="36.1226" y1="4.3816" x2="33.3571" y2="17.2395" gradientUnits="userSpaceOnUse">
<stop stop-color="#19729F"/>
<stop offset="1" stop-color="#12597C"/>
</linearGradient>
<linearGradient id="paint10_linear_4_2488" x1="47.9677" y1="17.2833" x2="47.9245" y2="18.138" gradientUnits="userSpaceOnUse">
<stop stop-color="#19729F"/>
<stop offset="1" stop-color="#12597C"/>
</linearGradient>
<linearGradient id="paint11_linear_4_2488" x1="53.2985" y1="17.2833" x2="53.2553" y2="18.138" gradientUnits="userSpaceOnUse">
<stop stop-color="#19729F"/>
<stop offset="1" stop-color="#12597C"/>
</linearGradient>
<linearGradient id="paint12_linear_4_2488" x1="50.56" y1="9.13165" x2="49.9957" y2="16.641" gradientUnits="userSpaceOnUse">
<stop stop-color="#19729F"/>
<stop offset="1" stop-color="#12597C"/>
</linearGradient>
<linearGradient id="paint13_linear_4_2488" x1="50.6287" y1="6.5888" x2="50.5687" y2="8.12431" gradientUnits="userSpaceOnUse">
<stop stop-color="#19729F"/>
<stop offset="1" stop-color="#12597C"/>
</linearGradient>
</defs>
</svg>
